<svg xmlns="http://www.w3.org/2000/svg" xmlns:xlink="http://www.w3.org/1999/xlink" version="1.1" id="Layer_1" x="0px" y="0px" viewBox="0 0 604 319" style="enable-background:new 0 0 604 319;" xml:space="preserve">
<style type="text/css">
	.st0{fill:#FFFFFF;}
</style>
<g>
	<g>
		<path class="st0" d="M264.4,154.2v94.3h-22v-94.3h-38.1v-19.5h98.1v19.5H264.4z"/>
		<path class="st0" d="M405.9,248.5h-22.4l-9.5-26.9h-45.9l-9.3,26.9h-22.4L338,134.7H365L405.9,248.5z M351.3,153.8L334,203.1h34.4    L351.3,153.8z"/>
		<path class="st0" d="M474.2,216.2c0-9-8.2-12.3-24.2-16.7c-15.6-4.3-33.7-11.3-33.7-32.7c0-19.3,14.8-32.1,38.9-32.1    c14.8,0,26.9,3.7,37.4,9.6l-5.2,17.9c-9.6-5.7-21.7-9.4-32-9.4c-12.7,0-18.2,5.4-18.2,12.9c0,8.9,9.7,12.3,24.7,16.3    c16.3,4.5,33.2,12,33.2,32.7c0,19.8-15.8,33.9-41.4,33.9c-14.4,0-28.8-3.8-39.1-10.1l4.9-18.2c10.1,6.1,21.5,10.4,34.6,10.4    C465.8,230.6,474.2,224.8,474.2,216.2z"/>
		<path class="st0" d="M565.8,154.2v94.3h-22v-94.3h-38.1v-19.5h98.1v19.5H565.8z"/>
	</g>
	<g>
		<path class="st0" d="M234.6,56.5c-0.2,0.4-0.5,0.6-0.7,0.8c-0.2,0.2-0.6,0.3-0.9,0.3c-0.4,0-0.9-0.2-1.4-0.6    c-0.5-0.4-1.2-0.9-2.1-1.4c-0.8-0.5-1.8-1-3-1.4c-1.2-0.4-2.6-0.6-4.3-0.6c-1.6,0-3,0.2-4.2,0.6c-1.2,0.4-2.2,1-3,1.7    c-0.8,0.7-1.4,1.6-1.8,2.6c-0.4,1-0.6,2-0.6,3.2c0,1.5,0.4,2.7,1.1,3.6c0.7,1,1.7,1.8,2.8,2.5c1.2,0.7,2.5,1.3,4,1.8    c1.5,0.5,3,1,4.6,1.6c1.6,0.5,3.1,1.1,4.6,1.8c1.5,0.7,2.8,1.5,4,2.5c1.2,1,2.1,2.3,2.8,3.8c0.7,1.5,1.1,3.3,1.1,5.5    c0,2.3-0.4,4.4-1.2,6.4c-0.8,2-1.9,3.8-3.4,5.2c-1.5,1.5-3.3,2.7-5.5,3.5c-2.2,0.9-4.7,1.3-7.4,1.3c-3.4,0-6.5-0.6-9.3-1.8    c-2.8-1.2-5.2-2.9-7.1-5l2-3.4c0.2-0.3,0.4-0.5,0.7-0.7c0.3-0.2,0.6-0.3,0.9-0.3c0.5,0,1.1,0.3,1.8,0.8c0.7,0.5,1.5,1.1,2.5,1.8    c1,0.7,2.2,1.3,3.6,1.8c1.4,0.5,3.1,0.8,5.1,0.8c1.7,0,3.2-0.2,4.5-0.7c1.3-0.5,2.4-1.1,3.3-2c0.9-0.8,1.6-1.8,2.1-3    c0.5-1.2,0.7-2.5,0.7-3.9c0-1.6-0.4-2.9-1.1-3.9c-0.7-1-1.7-1.9-2.8-2.5c-1.2-0.7-2.5-1.3-4-1.7c-1.5-0.5-3-1-4.6-1.5    c-1.6-0.5-3.1-1.1-4.6-1.7c-1.5-0.7-2.8-1.5-4-2.6c-1.2-1-2.1-2.4-2.8-3.9c-0.7-1.6-1.1-3.5-1.1-5.8c0-1.8,0.4-3.6,1.1-5.4    c0.7-1.7,1.8-3.3,3.1-4.6c1.4-1.3,3-2.4,5.1-3.2c2-0.8,4.3-1.2,6.9-1.2c2.9,0,5.6,0.5,8,1.4c2.4,0.9,4.5,2.3,6.3,4L234.6,56.5z"/>
		<path class="st0" d="M282.1,48.3v5.9h-16.9v46.4h-7.1V54.3h-17v-5.9H282.1z"/>
		<path class="st0" d="M309.9,95c2.2,0,4.1-0.4,5.8-1.1c1.7-0.7,3.1-1.8,4.3-3.1c1.2-1.3,2.1-2.9,2.7-4.7c0.6-1.8,0.9-3.8,0.9-6    V48.3h7v31.8c0,3-0.5,5.8-1.4,8.4c-1,2.6-2.3,4.8-4.1,6.7c-1.8,1.9-4,3.4-6.6,4.4c-2.6,1.1-5.5,1.6-8.7,1.6    c-3.2,0-6.1-0.5-8.7-1.6c-2.6-1.1-4.8-2.5-6.6-4.4c-1.8-1.9-3.2-4.1-4.1-6.7c-1-2.6-1.4-5.4-1.4-8.4V48.3h7v31.8    c0,2.2,0.3,4.2,0.9,6c0.6,1.8,1.5,3.4,2.7,4.7c1.2,1.3,2.6,2.3,4.3,3.1C305.8,94.6,307.8,95,309.9,95z"/>
		<path class="st0" d="M388.2,74.5c0,3.9-0.6,7.5-1.9,10.7c-1.2,3.2-3,6-5.3,8.2c-2.3,2.3-5,4.1-8.1,5.3c-3.2,1.3-6.7,1.9-10.5,1.9    h-19.6V48.3h19.6c3.8,0,7.3,0.6,10.5,1.9c3.2,1.3,5.9,3,8.1,5.3c2.3,2.3,4,5.1,5.3,8.3C387.6,67,388.2,70.6,388.2,74.5z M381,74.5    c0-3.2-0.4-6.1-1.3-8.6c-0.9-2.5-2.1-4.7-3.7-6.4c-1.6-1.8-3.6-3.1-5.8-4c-2.3-0.9-4.8-1.4-7.6-1.4H350v40.8h12.4    c2.8,0,5.3-0.5,7.6-1.4c2.3-0.9,4.2-2.3,5.8-4c1.6-1.7,2.8-3.9,3.7-6.4C380.5,80.6,381,77.7,381,74.5z"/>
		<path class="st0" d="M406.2,100.6h-7.1V48.3h7.1V100.6z"/>
		<path class="st0" d="M468.8,74.5c0,3.9-0.6,7.5-1.9,10.8c-1.2,3.3-3,6.1-5.3,8.4c-2.3,2.4-5,4.2-8.2,5.5c-3.2,1.3-6.7,2-10.5,2    c-3.8,0-7.3-0.7-10.5-2c-3.2-1.3-5.9-3.1-8.1-5.5c-2.3-2.4-4-5.2-5.3-8.4c-1.2-3.3-1.9-6.9-1.9-10.8c0-3.9,0.6-7.5,1.9-10.8    c1.2-3.3,3-6.1,5.3-8.5c2.3-2.4,5-4.2,8.1-5.5c3.2-1.3,6.7-2,10.5-2c3.8,0,7.4,0.7,10.5,2c3.2,1.3,5.9,3.2,8.2,5.5    c2.3,2.4,4,5.2,5.3,8.5C468.2,67,468.8,70.6,468.8,74.5z M461.6,74.5c0-3.2-0.4-6.1-1.3-8.7c-0.9-2.6-2.1-4.7-3.7-6.5    c-1.6-1.8-3.6-3.1-5.8-4.1c-2.3-0.9-4.8-1.4-7.7-1.4c-2.8,0-5.3,0.5-7.6,1.4c-2.3,0.9-4.2,2.3-5.9,4.1c-1.6,1.8-2.9,3.9-3.7,6.5    c-0.9,2.6-1.3,5.4-1.3,8.7c0,3.2,0.4,6.1,1.3,8.6c0.9,2.5,2.1,4.7,3.7,6.5c1.6,1.8,3.6,3.1,5.9,4.1c2.3,0.9,4.8,1.4,7.6,1.4    c2.8,0,5.4-0.5,7.7-1.4c2.3-0.9,4.2-2.3,5.8-4.1c1.6-1.8,2.8-3.9,3.7-6.5C461.1,80.6,461.6,77.7,461.6,74.5z"/>
	</g>
	<g>
		<polygon class="st0" points="115.9,313.5 94,303.5 0.6,303.5 0.6,289 97.1,289 116.4,297.8 139.8,289 169.8,289 169.8,303.5     142.4,303.5   "/>
	</g>
	<g>
		<rect x="0.6" y="2" class="st0" width="169.3" height="14.5"/>
	</g>
	<path class="st0" d="M169.8,215.4L0,45.5v151.9L22.8,220c19,19,44.3,29.5,71.2,29.5c17.3,0,34.4-4.5,49.5-13   c2.5-1.4,4.9-2.9,7.2-4.5l0.3-0.2l0,0c5.1-3.5,9.9-7.5,14.3-11.9L169.8,215.4z M32,210.8L13,192l-0.1-79.2l116.3,116.3   c-11,4.8-23.1,7.4-35.2,7.4C70.6,236.5,48.6,227.3,32,210.8z M141.5,222.5L13,94.4L13,77l138.2,138.2   C148.1,217.8,144.9,220.3,141.5,222.5z"/>
</g>
</svg>